<?xml version="1.0" standalone="no"?>
<!DOCTYPE svg PUBLIC "-//W3C//DTD SVG 20010904//EN"
 "http://www.w3.org/TR/2001/REC-SVG-20010904/DTD/svg10.dtd">
<svg version="1.0" xmlns="http://www.w3.org/2000/svg"
 width="400.000000pt" height="400.000000pt" viewBox="0 0 400.000000 400.000000"
 preserveAspectRatio="xMidYMid meet">

<g transform="translate(0.000000,400.000000) scale(0.100000,-0.100000)"
fill="#000000" stroke="none">
<path d="M1721 3114 c0 -11 3 -14 6 -6 3 7 2 16 -1 19 -3 4 -6 -2 -5 -13z"/>
<path d="M1774 2814 c4 -9 1 -23 -5 -31 -9 -11 -8 -17 7 -29 13 -10 14 -14 4
-11 -22 6 -39 -23 -40 -66 0 -21 -5 -47 -11 -59 -19 -35 -2 -30 19 5 12 21 36
42 61 53 23 10 41 21 41 26 0 4 9 17 21 29 24 24 19 49 -10 49 -11 0 -33 11
-49 25 -35 29 -47 32 -38 9z m76 -64 c0 -5 -11 -10 -25 -10 -14 0 -25 5 -25
10 0 6 11 10 25 10 14 0 25 -4 25 -10z"/>
<path d="M2295 2810 c-4 -6 -10 -8 -15 -5 -5 3 -7 -3 -5 -15 2 -11 -1 -19 -8
-17 -7 1 -11 -4 -9 -12 1 -7 -3 -20 -10 -29 -7 -9 -8 -13 -2 -9 6 4 20 -3 29
-14 18 -19 18 -20 1 -37 -9 -9 -16 -12 -15 -7 3 21 -1 33 -15 38 -12 5 -13 -2
-9 -30 5 -32 4 -35 -11 -30 -10 4 -22 7 -27 7 -5 0 -4 11 1 26 6 14 8 29 5 34
-3 5 -1 11 4 15 6 3 19 18 30 33 l19 28 -48 -1 -49 0 21 -22 c25 -27 18 -39
-27 -47 -19 -4 -35 -9 -35 -12 0 -3 14 -19 30 -34 17 -15 30 -37 30 -48 0 -29
75 -36 112 -10 48 33 132 68 165 68 40 0 36 27 -5 33 -21 3 -18 4 11 6 22 0
37 -4 37 -11 0 -6 3 -8 6 -5 10 9 -24 57 -40 57 -8 0 -16 7 -20 15 -3 8 -12
12 -20 9 -8 -3 -17 -1 -21 5 -3 6 -16 11 -28 12 -20 1 -20 2 3 9 l25 8 -26 1
c-15 1 -29 -5 -33 -14 -3 -8 -11 -15 -18 -14 -10 0 -10 2 0 6 6 2 12 9 12 14
0 12 -37 11 -45 -1z m35 -77 c34 -67 34 -66 19 -60 -8 2 -13 10 -11 16 1 6 -2
11 -7 11 -5 0 -12 11 -15 25 -4 14 -10 24 -14 21 -4 -2 -9 4 -9 15 -3 32 12
21 37 -28z m88 34 c11 -8 11 -12 0 -18 -15 -10 -34 -12 -25 -2 4 3 -1 11 -9
18 -15 10 -15 12 2 12 11 0 25 -4 32 -10z"/>
<path d="M1945 2710 c-3 -6 1 -7 9 -4 18 7 21 14 7 14 -6 0 -13 -4 -16 -10z"/>
<path d="M1940 2635 c-36 -24 -71 -44 -78 -44 -7 -1 -11 -5 -8 -10 4 -5 0 -11
-6 -14 -10 -3 -10 -7 -1 -18 6 -8 12 -18 14 -24 9 -38 12 -44 19 -40 14 9 40
-41 28 -53 -8 -8 -8 -15 -1 -24 22 -29 23 -48 2 -48 -11 0 -19 6 -18 13 1 6 1
20 0 30 -1 16 -3 16 -30 3 -22 -12 -30 -13 -34 -3 -6 18 3 36 16 32 7 -3 19 0
27 5 13 9 12 12 -4 25 -24 18 -66 20 -66 3 0 -7 -11 -1 -24 14 -13 15 -26 24
-29 21 -3 -3 -11 -2 -18 3 -7 4 -72 7 -145 7 -108 -1 -136 -4 -159 -19 -22
-14 -31 -15 -46 -6 -17 11 -19 9 -19 -13 0 -18 7 -26 25 -31 21 -5 25 -12 25
-41 l0 -35 -25 16 c-24 16 -25 16 -25 -6 0 -12 10 -42 22 -67 27 -55 28 -146
4 -262 -15 -69 -15 -80 0 -130 26 -88 52 -132 75 -126 10 3 17 2 14 -3 -3 -4
2 -13 11 -20 12 -11 18 -9 32 11 9 13 38 52 64 86 41 55 46 67 42 100 -3 21
-2 33 3 27 13 -17 42 -24 49 -12 4 5 -4 20 -17 32 -14 11 -20 18 -15 14 18
-14 27 -8 16 12 -13 24 5 35 76 44 42 5 53 3 68 -13 10 -11 31 -25 47 -31 17
-8 26 -17 22 -24 -4 -6 -8 -18 -8 -26 0 -8 -10 -17 -23 -20 -19 -4 -15 -8 30
-30 l53 -25 -65 -5 c-36 -3 -60 -8 -53 -13 12 -7 111 5 146 18 32 13 17 -11
-20 -33 -21 -12 -32 -22 -24 -22 8 0 39 19 69 41 30 23 66 44 81 48 16 4 32
19 41 38 8 18 24 37 35 43 11 5 13 9 5 7 -16 -4 -91 30 -102 47 -10 16 1 26
28 26 21 0 24 4 19 23 -6 21 -6 21 9 3 14 -17 14 -21 1 -36 -17 -19 -20 -34
-5 -25 22 14 80 15 80 3 1 -7 10 -2 21 11 11 13 23 21 27 17 4 -4 -8 -21 -26
-37 -18 -16 -28 -29 -23 -29 6 0 13 4 16 10 9 14 45 32 45 22 0 -4 -18 -18
-40 -31 -41 -23 -52 -41 -25 -41 19 0 19 -29 0 -119 -13 -63 -46 -131 -82
-169 -23 -24 -15 -49 15 -55 22 -4 32 -15 44 -46 17 -42 10 -61 -23 -61 -10 0
-21 -4 -24 -10 -3 -5 -42 -10 -85 -10 -43 0 -82 -4 -85 -10 -3 -5 -15 -10 -26
-10 -17 0 -18 3 -9 20 8 14 8 20 0 20 -6 0 -13 -7 -16 -15 -4 -8 -13 -15 -21
-15 -8 0 -11 4 -8 10 11 18 -14 48 -50 60 -19 6 -35 16 -35 21 0 5 -9 9 -19 9
-11 0 -23 5 -26 10 -3 6 -13 10 -21 10 -8 0 -37 11 -66 25 -28 14 -52 25 -53
25 -1 0 1 -14 3 -31 4 -24 16 -38 56 -63 122 -77 217 -100 375 -94 151 7 258
46 355 130 36 31 38 38 52 128 7 52 17 131 20 175 4 44 11 89 17 100 6 11 11
43 11 72 1 43 -3 54 -19 62 -32 14 -77 29 -115 37 l-35 7 50 12 c28 6 59 16
70 22 48 26 96 42 108 37 15 -5 61 39 56 54 -2 5 -49 -11 -104 -35 -116 -50
-146 -52 -155 -8 -7 33 -60 157 -71 165 -4 3 -10 22 -14 43 -8 39 -19 48 -29
22 -8 -22 -52 -18 -76 7 -11 12 -20 25 -20 30 0 4 -10 8 -22 8 -12 0 -30 8
-40 17 -16 14 -18 15 -13 1 4 -11 -9 -25 -45 -47 -29 -18 -53 -31 -55 -29 -1
2 -8 13 -14 26 -14 27 -5 38 60 69 29 14 36 23 35 45 -1 16 -3 28 -6 27 -3 0
-34 -20 -70 -44z m168 -96 c8 -12 9 -18 3 -15 -7 4 -8 1 -5 -8 3 -9 10 -13 15
-10 5 3 8 2 7 -3 -5 -18 14 -53 25 -46 7 3 3 -3 -7 -15 -11 -12 -14 -22 -8
-22 6 0 14 5 18 11 4 8 9 7 15 -2 14 -23 12 -26 -48 -59 -32 -18 -65 -39 -74
-46 -14 -12 -17 -11 -27 11 -8 16 -8 25 -1 25 5 0 4 6 -3 14 -7 8 -17 11 -22
8 -5 -3 -6 0 -2 6 8 13 -12 57 -21 48 -10 -10 -32 29 -29 50 3 22 59 53 98 54
15 0 30 5 33 10 9 15 19 12 33 -11z m92 -159 c0 -5 -1 -12 -2 -15 -2 -2 7 -12
20 -21 14 -9 21 -22 18 -31 -3 -8 -2 -12 3 -9 8 5 26 -23 19 -29 -10 -7 -132
-76 -138 -78 -5 -1 -8 3 -9 8 -1 6 3 10 8 10 20 0 19 11 -2 12 -12 1 -32 14
-44 30 -18 22 -20 30 -10 42 10 12 9 13 -3 7 -8 -4 -2 4 14 18 17 14 32 23 35
21 3 -2 20 8 36 21 31 25 55 31 55 14z m-525 -39 c-3 -6 2 -14 11 -19 15 -8
15 -10 0 -15 -8 -3 -18 -2 -22 4 -6 11 2 39 11 39 4 0 4 -4 0 -9z m48 -16 c-7
-21 -12 -19 -10 4 0 11 5 18 9 15 4 -3 5 -11 1 -19z m-156 -10 c0 -8 -4 -12
-9 -9 -4 3 -8 9 -8 15 0 5 4 9 8 9 5 0 9 -7 9 -15z m365 7 c-19 -13 -102 -14
-102 -2 0 6 24 10 58 10 32 0 52 -4 44 -8z m-392 -16 c0 -11 -19 -15 -25 -6
-3 5 1 10 9 10 9 0 16 -2 16 -4z m482 -159 c-22 -5 -40 -3 -49 4 -10 9 -20 9
-39 0 -30 -13 -37 -14 -30 -3 3 5 -8 6 -25 4 -18 -3 -29 0 -29 8 0 20 33 70
47 70 6 0 24 5 38 12 23 10 26 17 21 41 -5 22 8 10 48 -49 l54 -79 -36 -8z
m-251 20 c-10 -9 -11 -8 -5 6 3 10 9 15 12 12 3 -3 0 -11 -7 -18z m86 -91 c-9
-18 -10 -18 -30 2 -16 17 -18 24 -8 36 11 13 14 13 30 -2 13 -13 15 -22 8 -36z
m333 39 c-7 -8 -22 -15 -34 -14 -18 0 -16 3 9 14 39 18 40 18 25 0z m-256 -10
c6 -8 22 -17 35 -20 13 -2 31 -11 41 -20 9 -8 24 -15 33 -15 9 0 17 -6 17 -12
0 -12 -69 -97 -71 -87 -6 33 -10 43 -24 59 -9 10 -15 24 -14 32 2 7 -3 23 -10
36 -10 19 -15 21 -27 11 -8 -6 -17 -9 -21 -5 -3 3 -1 6 5 6 7 0 12 7 12 15 0
19 10 19 24 0z m519 -27 c-6 -7 -13 -30 -17 -50 -6 -35 -26 -54 -26 -25 0 25
20 81 32 88 17 11 23 2 11 -13z m-983 -27 c0 -6 -5 -13 -10 -16 -15 -9 -43 3
-35 15 8 13 45 13 45 1z m66 -36 c7 -5 9 -14 6 -19 -3 -5 6 -6 20 -3 29 8 54
-14 44 -38 -3 -8 -1 -15 4 -15 6 0 10 -5 10 -11 0 -7 -11 -9 -29 -6 -15 3 -33
1 -38 -4 -8 -8 -13 -7 -18 0 -3 6 -1 10 6 9 6 -2 13 2 16 8 3 10 -50 29 -70
25 -5 -1 -5 4 -1 10 5 9 2 10 -9 6 -21 -8 -22 2 -2 30 15 22 42 25 61 8z m393
-39 c18 -22 -17 -39 -37 -19 -13 13 -13 16 -1 24 19 12 25 11 38 -5z m-486
-31 c-3 -9 -8 -14 -10 -11 -3 3 -2 9 2 15 9 16 15 13 8 -4z m857 -5 c22 -7 22
-8 5 -10 -11 -1 -24 -2 -28 -1 -5 1 -5 -4 -2 -10 4 -6 15 -9 25 -6 13 3 16 0
13 -14 -5 -16 -7 -16 -20 -4 -20 20 -33 19 -33 -4 0 -13 11 -23 35 -31 38 -13
49 -36 13 -26 -13 3 -27 6 -31 6 -5 0 -6 4 -3 9 3 5 -1 12 -10 15 -11 4 -15 2
-11 -8 4 -10 1 -13 -9 -9 -11 4 -13 15 -8 42 11 67 12 68 64 51z m-158 -182
c-7 -7 -12 -8 -12 -2 0 6 3 14 7 17 3 4 9 5 12 2 2 -3 -1 -11 -7 -17z m-427
-179 c11 -17 0 -20 -21 -4 -17 13 -17 14 -2 15 9 0 20 -5 23 -11z"/>
<path d="M2123 2294 c0 -7 5 -12 11 -11 6 1 10 -5 8 -13 -2 -8 0 -11 5 -7 4 5
9 13 9 18 1 5 2 12 3 16 0 3 13 -4 28 -18 15 -13 22 -17 15 -8 -6 9 -8 19 -4
23 4 4 3 7 -3 6 -5 -1 -12 -1 -15 0 -20 9 -57 5 -57 -6z"/>
<path d="M1991 2052 c13 -17 27 -31 32 -31 12 -1 -14 35 -36 49 -18 11 -17 8
4 -18z"/>
<path d="M1960 2042 c0 -6 6 -15 14 -19 7 -4 15 -15 18 -23 3 -9 7 -10 11 -3
3 5 -5 21 -18 33 -14 13 -25 18 -25 12z"/>
<path d="M1583 1965 c0 -8 4 -12 9 -9 5 3 6 10 3 15 -9 13 -12 11 -12 -6z"/>
<path d="M1859 2653 c-13 -16 -12 -17 4 -4 16 13 21 21 13 21 -2 0 -10 -8 -17
-17z"/>
<path d="M2440 2605 c0 -3 7 -14 16 -23 15 -14 16 -14 13 3 -4 17 -29 35 -29
20z"/>
<path d="M1550 2558 c-183 -10 -180 -9 -180 -31 0 -11 4 -15 12 -11 6 4 74 10
149 13 88 4 143 11 151 19 6 6 10 13 7 15 -2 1 -65 -1 -139 -5z"/>
<path d="M2167 2549 c8 -8 16 -8 30 0 16 9 14 10 -11 11 -22 0 -27 -3 -19 -11z"/>
<path d="M1826 2021 c-4 -5 -2 -12 3 -15 5 -4 12 -2 15 3 4 5 2 12 -3 15 -5 4
-12 2 -15 -3z"/>
<path d="M1705 1973 c21 -15 45 -17 45 -4 0 5 -14 11 -32 13 -28 5 -29 4 -13
-9z"/>
<path d="M2118 1941 c-1 -5 -35 -43 -75 -85 -72 -76 -72 -77 -53 -96 24 -24
17 -43 -42 -132 -22 -32 -36 -58 -32 -58 9 0 44 41 44 51 0 11 58 97 71 104
16 11 10 35 -10 35 -42 0 -31 24 43 94 70 67 90 96 67 96 -5 0 -11 -4 -13 -9z"/>
<path d="M1967 1870 c-14 -11 -29 -20 -34 -20 -4 0 -14 -4 -22 -9 -12 -8 -12
-11 0 -23 16 -16 53 -32 45 -20 -2 4 9 26 25 50 31 46 26 53 -14 22z"/>
<path d="M1620 1815 c0 -16 16 -20 24 -6 3 5 -1 11 -9 15 -9 3 -15 0 -15 -9z"/>
<path d="M1708 1781 c-7 -12 -18 -21 -25 -21 -16 0 -17 -22 -1 -38 16 -16 25
-15 32 4 5 14 4 15 -9 4 -22 -18 -18 3 6 34 12 15 19 30 16 33 -3 2 -12 -4
-19 -16z"/>
<path d="M1733 1774 c-15 -16 -16 -24 -4 -24 8 0 24 30 19 35 -2 2 -9 -3 -15
-11z"/>
<path d="M1970 1397 c-9 -8 -14 -24 -12 -45 l3 -33 -25 16 c-24 16 -28 16 -51
1 -28 -18 -40 -54 -31 -91 8 -31 40 -65 62 -65 12 0 11 4 -7 19 -17 14 -23 29
-23 66 -1 54 20 79 52 59 13 -9 17 -25 17 -78 0 -59 2 -66 20 -66 19 0 20 6
17 82 -4 144 -5 148 -22 135z"/>
<path d="M1283 1393 c-10 -3 -10 -10 -2 -25 6 -12 9 -56 7 -104 -3 -76 -1 -84
16 -84 12 0 16 5 12 16 -3 9 -6 58 -6 110 0 52 -3 94 -7 93 -5 0 -14 -3 -20
-6z"/>
<path d="M2825 1392 c-6 -4 -10 -53 -10 -110 0 -96 1 -102 20 -102 18 0 20 5
17 37 -3 27 0 40 13 49 21 15 55 2 55 -21 0 -28 24 -65 41 -65 16 0 17 3 4 28
-7 15 -18 39 -24 55 -8 20 -17 27 -39 27 -15 0 -33 -5 -40 -12 -9 -9 -12 3
-12 55 0 65 -4 75 -25 59z"/>
<path d="M3385 1392 c-6 -4 -10 -53 -10 -110 0 -95 1 -102 20 -102 19 0 20 6
17 110 -3 107 -6 118 -27 102z"/>
<path d="M575 1285 c0 -92 2 -105 17 -105 14 0 17 14 20 105 3 99 2 105 -17
105 -19 0 -20 -7 -20 -105z"/>
<path d="M755 1380 c-7 -12 12 -40 26 -40 5 0 9 11 9 25 0 25 -23 35 -35 15z"/>
<path d="M1360 1370 c0 -15 5 -20 18 -18 9 2 17 10 17 18 0 8 -8 16 -17 18
-13 2 -18 -3 -18 -18z"/>
<path d="M2305 1285 c0 -63 4 -105 10 -105 6 0 9 22 7 53 -2 30 -2 67 0 83 3
24 8 14 31 -53 23 -66 33 -83 48 -83 16 0 17 3 9 18 -6 9 -23 55 -39 102 -21
64 -32 86 -47 88 -18 3 -19 -5 -19 -103z"/>
<path d="M2477 1370 c-3 -11 -2 -22 2 -25 4 -2 6 -40 3 -85 -4 -73 -3 -80 14
-80 17 0 19 9 19 105 0 90 -2 105 -16 105 -9 0 -19 -9 -22 -20z"/>
<path d="M2567 1384 c-14 -14 -7 -35 11 -32 9 2 17 10 17 17 0 16 -18 25 -28
15z"/>
<path d="M3240 1372 c0 -5 14 -9 30 -10 17 0 30 4 30 9 0 5 -13 9 -30 9 -16 0
-30 -4 -30 -8z"/>
<path d="M1020 1357 c-12 -10 -14 -28 -10 -92 5 -76 6 -80 30 -83 16 -2 20 0
13 5 -8 5 -13 42 -15 95 -3 75 -5 85 -18 75z"/>
<path d="M877 1326 c4 -17 -5 -29 -31 -49 -19 -15 -38 -36 -41 -47 -16 -50 61
-71 91 -25 l17 26 11 -23 c6 -13 19 -24 29 -26 15 -3 15 -1 2 25 -8 15 -15 39
-15 53 0 35 -21 72 -46 81 -18 6 -20 4 -17 -15z m23 -101 c-21 -40 -70 -45
-70 -8 0 9 15 32 33 52 l32 37 9 -28 c6 -20 5 -36 -4 -53z"/>
<path d="M1183 1329 c15 -11 27 -27 27 -35 0 -8 7 -14 15 -14 8 0 15 6 15 14
0 18 -47 56 -69 56 -11 -1 -8 -7 12 -21z"/>
<path d="M1524 1325 c14 -13 26 -29 26 -35 0 -5 7 -10 15 -10 23 0 -2 45 -32
59 -36 17 -39 13 -9 -14z"/>
<path d="M1685 1341 c-3 -7 2 -11 14 -11 12 0 21 -4 21 -10 0 -5 5 -10 10 -10
6 0 10 7 10 15 0 8 -4 15 -9 15 -5 0 -16 3 -24 6 -8 3 -18 1 -22 -5z"/>
<path d="M2123 1327 c15 -14 27 -31 27 -37 0 -5 7 -10 15 -10 34 0 -3 53 -45
65 l-25 8 28 -26z"/>
<path d="M2730 1331 c13 -11 28 -17 33 -14 12 7 -3 19 -33 28 l-25 6 25 -20z"/>
<path d="M2910 1340 c0 -5 7 -10 15 -10 8 0 15 5 15 10 0 6 -7 10 -15 10 -8 0
-15 -4 -15 -10z"/>
<path d="M3070 1336 c13 -17 11 -22 -28 -56 -36 -30 -43 -42 -40 -66 3 -25 7
-29 40 -32 30 -3 39 1 49 20 12 23 12 23 -9 4 -26 -23 -52 -15 -52 16 1 20 51
88 65 88 3 0 5 -16 5 -35 0 -48 25 -95 51 -95 18 0 19 2 6 15 -8 7 -18 31 -21
52 -9 48 -26 93 -36 93 -5 0 -17 3 -27 7 -16 6 -17 5 -3 -11z"/>
<path d="M3283 1327 c15 -14 27 -31 27 -37 0 -5 7 -10 15 -10 34 0 -3 53 -45
65 l-25 8 28 -26z"/>
<path d="M810 1324 c0 -14 3 -15 18 -3 9 7 19 15 21 16 2 2 -5 3 -17 3 -14 0
-22 -6 -22 -16z"/>
<path d="M1111 1314 c-28 -36 -27 -79 4 -109 25 -26 76 -33 105 -15 10 7 4 8
-20 4 -29 -5 -39 -1 -59 20 -26 28 -31 86 -10 112 6 8 9 14 6 14 -3 0 -15 -12
-26 -26z"/>
<path d="M1370 1332 c-12 -2 -15 -19 -15 -77 0 -68 2 -75 20 -75 18 0 20 6 17
57 -4 92 -6 99 -22 95z"/>
<path d="M1453 1325 c-42 -30 -34 -121 12 -139 32 -12 82 -6 96 12 11 14 11
15 -1 5 -60 -54 -148 59 -93 119 20 22 15 23 -14 3z"/>
<path d="M1630 1331 c-11 -5 -15 -23 -15 -79 0 -65 2 -72 20 -72 18 0 20 5 17
60 -3 40 1 66 10 77 7 10 8 14 1 10 -6 -4 -13 -3 -15 2 -1 4 -10 6 -18 2z"/>
<path d="M2057 1328 c-62 -48 -25 -148 54 -148 21 0 40 4 43 8 3 5 -7 7 -22 4
-60 -8 -107 83 -67 128 20 23 17 26 -8 8z"/>
<path d="M2570 1333 c-23 -5 -15 -153 8 -153 14 0 17 9 14 57 -4 92 -6 99 -22
96z"/>
<path d="M3000 1325 c0 -13 4 -14 20 -5 11 6 20 13 20 15 0 3 -9 5 -20 5 -11
0 -20 -7 -20 -15z"/>
<path d="M3217 1328 c-62 -48 -25 -148 54 -148 21 0 40 4 43 9 3 4 -6 6 -19 3
-60 -11 -106 69 -71 123 19 28 17 31 -7 13z"/>
<path d="M2642 1310 c-20 -32 -15 -84 11 -108 24 -22 90 -31 101 -13 3 4 -6 6
-19 3 -55 -10 -104 65 -76 117 15 27 0 28 -17 1z"/>
<path d="M725 1209 c-4 -6 -17 -14 -29 -19 -20 -8 -20 -9 5 -9 19 -1 28 5 32
19 6 22 2 26 -8 9z"/>
</g>
</svg>
